<svg t="1578022115650" class="icon" viewBox="0 0 1024 1024" version="1.1" xmlns="http://www.w3.org/2000/svg" p-id="4641" width="200" height="200"><path d="M269.9 455.6L682.6 90.3c11.8-10.4 29.9-9.3 40.4 2.5 10.4 11.8 9.3 29.9-2.5 40.4L307.8 498.4c-11.8 10.4-29.9 9.3-40.4-2.5-10.4-11.7-9.3-29.9 2.5-40.3z" fill="#cdcdcd" p-id="4642"></path><path d="M720.5 820L307.8 454.8c-11.8-10.4-29.9-9.3-40.4 2.5-10.4 11.8-9.3 29.9 2.5 40.4l412.8 365.2c11.8 10.4 29.9 9.3 40.4-2.5 10.3-11.8 9.2-30-2.6-40.4z" fill="#cdcdcd" p-id="4643"></path></svg>